# xmcd CD database file
#
# Track frame offsets:
#	150
#	16526
#	27795
#	47717
#	68954
#	82832
#	100490
#	114800
#	129377
#	145879
#	154031
#	170183
#	174977
#
# Disc length: 2554 seconds
#
# Revision: 0
# Processed by: cddbd v1.5.2PL0 Copyright (c) Steve Scherf et al.
# Submitted via: CDex 1.51
#
DISCID=9b09f80d
DTITLE=Lester Butler - 13 Featuring Lester Butler
DYEAR=1997
DGENRE=Blues
TTITLE0=So Low Down
TTITLE1=HNC
TTITLE2=Sweet Tooth
TTITLE3=Black Hearted Woman
TTITLE4=Close To You
TTITLE5=Smokestack Lightning
TTITLE6=Pray For Me
TTITLE7=So Mean To Me
TTITLE8=Way Down South
TTITLE9=Boogie Disease
TTITLE10=Plague Of Madness
TTITLE11=Down In The Alley
TTITLE12=Baby Please Don't Go
EXTD=YEAR: 1997
EXTT0=
EXTT1=
EXTT2=
EXTT3=
EXTT4=
EXTT5=
EXTT6=
EXTT7=
EXTT8=
EXTT9=
EXTT10=
EXTT11=
EXTT12=
PLAYORDER=
